<?xml version="1.0" standalone="no"?>
<!DOCTYPE svg PUBLIC "-//W3C//DTD SVG 20010904//EN"
 "http://www.w3.org/TR/2001/REC-SVG-20010904/DTD/svg10.dtd">
<svg version="1.0" xmlns="http://www.w3.org/2000/svg"
 width="1280.000000pt" height="1280.000000pt" viewBox="0 0 1280.000000 1280.000000"
 preserveAspectRatio="xMidYMid meet">
<g transform="translate(0.000000,1280.000000) scale(0.100000,-0.100000)"
fill="#000000" stroke="none">
<path d="M6150 12790 c-41 -5 -149 -13 -240 -20 -1056 -75 -2106 -431 -3000
-1017 -726 -476 -1350 -1092 -1818 -1795 -175 -262 -276 -435 -411 -706 -371
-741 -594 -1548 -651 -2357 -6 -88 -15 -201 -21 -252 -12 -118 -12 -355 1
-480 5 -54 14 -170 20 -258 68 -955 373 -1923 868 -2755 725 -1219 1815 -2155
3122 -2682 596 -240 1254 -393 1885 -438 88 -6 204 -15 258 -20 125 -13 362
-13 480 -1 51 6 164 15 252 21 1610 114 3154 873 4249 2090 952 1057 1528
2398 1626 3785 6 88 15 204 20 258 13 125 13 362 1 480 -6 51 -15 164 -21 252
-89 1249 -564 2464 -1359 3470 -342 433 -790 865 -1243 1198 -165 121 -399
272 -594 385 -816 469 -1754 756 -2679 822 -88 6 -201 15 -252 21 -106 10
-384 10 -493 -1z m798 -523 c172 -206 337 -541 421 -858 60 -225 83 -391 88
-650 6 -267 -8 -416 -57 -617 -82 -336 -205 -562 -450 -832 -246 -271 -378
-451 -489 -670 -194 -379 -259 -720 -248 -1289 6 -279 11 -357 43 -610 10 -82
12 -127 5 -134 -6 -6 -33 26 -80 97 -250 379 -402 778 -457 1196 -22 173 -15
509 15 665 76 404 231 701 553 1061 172 193 256 298 357 449 244 364 351 726
351 1187 0 240 -43 631 -105 954 -8 43 -15 85 -15 92 0 25 26 9 68 -41z
m-1337 -917 c284 -388 398 -926 299 -1411 -49 -240 -144 -423 -320 -615 -311
-339 -437 -587 -496 -969 -23 -152 -23 -478 0 -690 23 -205 23 -207 10 -212
-5 -2 -36 36 -68 84 -131 199 -244 484 -288 725 -18 98 -22 157 -22 293 2 253
42 423 151 638 63 123 130 216 259 362 228 258 342 435 412 641 53 155 66 255
66 494 0 228 -9 320 -55 588 -23 136 -23 132 -5 132 7 0 33 -27 57 -60z m2462
18 c117 -145 226 -371 286 -598 43 -164 55 -267 56 -480 0 -229 -12 -319 -66
-487 -62 -192 -137 -317 -309 -507 -271 -302 -402 -549 -462 -876 -30 -158
-32 -579 -4 -808 10 -84 15 -156 11 -160 -19 -19 -158 212 -231 383 -103 240
-143 414 -151 665 -8 268 28 441 136 665 66 136 138 241 251 365 303 334 440
588 486 904 29 199 12 525 -45 858 -23 137 -17 148 42 76z m855 -5260 c24 -24
11 -447 -24 -738 -85 -721 -340 -1409 -710 -1916 -171 -234 -372 -444 -560
-584 -55 -41 -114 -85 -130 -98 l-29 -23 75 6 c41 2 219 9 395 15 607 19 901
31 1105 46 361 26 426 28 458 15 59 -25 67 -92 14 -129 -37 -27 -244 -120
-414 -188 -319 -126 -623 -207 -923 -246 -78 -10 -466 -13 -1795 -13 l-1695 0
-140 22 c-282 45 -569 128 -883 253 -240 97 -383 168 -401 201 -20 36 -7 75
31 95 36 19 86 18 468 -10 113 -8 340 -19 505 -25 539 -19 1066 -33 1070 -29
2 2 -46 41 -108 88 -63 47 -179 151 -267 239 l-155 156 -140 -8 c-289 -16
-587 10 -750 66 -299 104 -543 310 -777 657 -39 58 -86 138 -105 178 -128 280
-164 687 -89 985 115 450 400 712 852 783 l112 18 7 90 c4 50 9 94 12 98 2 5
1124 8 2492 8 1921 0 2490 -3 2499 -12z"/>
<path d="M3770 5519 c-119 -30 -196 -73 -276 -153 -127 -127 -191 -296 -201
-531 -9 -217 26 -408 102 -560 87 -175 300 -421 448 -519 181 -119 444 -188
639 -169 l77 8 -50 85 c-288 488 -493 1128 -559 1748 l-13 112 -46 -1 c-25 0
-80 -9 -121 -20z"/>
</g>
</svg>
